<svg id="Capa_1" enable-background="new 0 0 510 510" height="512" viewBox="0 0 510 510" width="512" xmlns="http://www.w3.org/2000/svg" xmlns:xlink="http://www.w3.org/1999/xlink"><linearGradient id="lg1"><stop offset="0" stop-color="#7e8595"/><stop offset="1" stop-color="#555a66"/></linearGradient><linearGradient id="SVGID_1_" gradientUnits="userSpaceOnUse" x1="61.789" x2="68.628" xlink:href="#lg1" y1="494.596" y2="494.596"/><linearGradient id="SVGID_2_" gradientUnits="userSpaceOnUse" x1="42.969" x2="97.132" xlink:href="#lg1" y1="247.237" y2="247.237"/><linearGradient id="SVGID_3_" gradientUnits="userSpaceOnUse" x1="76.633" x2="-87.101" y1="243.959" y2="285.363"><stop offset="0" stop-color="#bec3d2" stop-opacity="0"/><stop offset=".221" stop-color="#c5c9d7" stop-opacity=".221"/><stop offset=".5343" stop-color="#d7dae3" stop-opacity=".534"/><stop offset=".9014" stop-color="#f6f6f8" stop-opacity=".901"/><stop offset="1" stop-color="#fff"/></linearGradient><linearGradient id="lg2"><stop offset="0" stop-color="#ffda45"/><stop offset="1" stop-color="#ffa425"/></linearGradient><linearGradient id="SVGID_4_" gradientUnits="userSpaceOnUse" x1="45.751" x2="92.636" xlink:href="#lg2" y1="431.549" y2="431.549"/><linearGradient id="lg3"><stop offset="0" stop-color="#ffda45" stop-opacity="0"/><stop offset="1" stop-color="#fcee21"/></linearGradient><linearGradient id="SVGID_5_" gradientUnits="userSpaceOnUse" x1="79.388" x2="27.633" xlink:href="#lg3" y1="429.932" y2="433.697"/><linearGradient id="SVGID_6_" gradientUnits="userSpaceOnUse" x1="111.993" x2="73.725" y1="193.006" y2="182.969"><stop offset="0" stop-color="#555a66" stop-opacity="0"/><stop offset="1" stop-color="#555a66"/></linearGradient><linearGradient id="SVGID_7_" gradientUnits="userSpaceOnUse" x1="47.211" x2="90.275" xlink:href="#lg2" y1="77.325" y2="77.325"/><linearGradient id="SVGID_8_" gradientUnits="userSpaceOnUse" x1="57.449" x2="29.69" xlink:href="#lg3" y1="78.099" y2="79.275"/><linearGradient id="SVGID_9_" gradientUnits="userSpaceOnUse" x1="100.71" x2="61.815" y1="113.979" y2="81.044"><stop offset="0" stop-color="#ffda45" stop-opacity="0"/><stop offset="1" stop-color="#b53759"/></linearGradient><linearGradient id="SVGID_10_" gradientUnits="userSpaceOnUse" x1="55.588" x2="76.735" xlink:href="#lg2" y1="161.443" y2="161.443"/><linearGradient id="SVGID_11_" gradientUnits="userSpaceOnUse" x1="77.108" x2="48.878" xlink:href="#lg3" y1="161.801" y2="158.978"/><linearGradient id="SVGID_12_" gradientUnits="userSpaceOnUse" x1="186.048" x2="541.794" y1="113.875" y2="498.746"><stop offset="0" stop-color="#ffdaaa"/><stop offset=".4213" stop-color="#ffd8a8"/><stop offset=".6519" stop-color="#fed1a0"/><stop offset=".8359" stop-color="#fdc592"/><stop offset=".9951" stop-color="#fcb47f"/><stop offset="1" stop-color="#fcb37e"/></linearGradient><linearGradient id="lg4"><stop offset="0" stop-color="#fcb37e" stop-opacity="0"/><stop offset="1" stop-color="#ff7044"/></linearGradient><linearGradient id="SVGID_13_" gradientUnits="userSpaceOnUse" x1="555.03" x2="57.949" xlink:href="#lg4" y1="379.041" y2="120.559"/><linearGradient id="SVGID_14_" gradientUnits="userSpaceOnUse" x1="455.374" x2="216.221" xlink:href="#lg4" y1="403.692" y2="192.657"/><linearGradient id="SVGID_15_" gradientUnits="userSpaceOnUse" x1="387.497" x2="271.861" xlink:href="#lg4" y1="122.13" y2="1.261"/><linearGradient id="lg5"><stop offset="0" stop-color="#f9f7fc"/><stop offset="1" stop-color="#f0ddfc"/></linearGradient><linearGradient id="SVGID_16_" gradientUnits="userSpaceOnUse" x1="73.96" x2="509.606" xlink:href="#lg5" y1="4.228" y2="520.197"/><linearGradient id="SVGID_17_" gradientUnits="userSpaceOnUse" x1="325.306" x2="25.801" y1="287.542" y2="11.18"><stop offset="0" stop-color="#e9edf5" stop-opacity="0"/><stop offset="1" stop-color="#fff"/></linearGradient><linearGradient id="lg6"><stop offset="0" stop-color="#f0ddfc" stop-opacity="0"/><stop offset=".2889" stop-color="#c8b7e0" stop-opacity=".289"/><stop offset=".5915" stop-color="#a595c8" stop-opacity=".592"/><stop offset=".8395" stop-color="#8f81b8" stop-opacity=".84"/><stop offset="1" stop-color="#8779b3"/></linearGradient><linearGradient id="SVGID_18_" gradientUnits="userSpaceOnUse" x1="402.636" x2="260.805" xlink:href="#lg6" y1="591.955" y2="450.124"/><linearGradient id="SVGID_19_" gradientUnits="userSpaceOnUse" x1="248.176" x2="248.176" xlink:href="#lg5" y1="425.954" y2="473.355"/><linearGradient id="SVGID_20_" gradientUnits="userSpaceOnUse" x1="432.476" x2="434.655" xlink:href="#lg5" y1="491.718" y2="493.897"/><linearGradient id="SVGID_21_" gradientUnits="userSpaceOnUse" x1="355.664" x2="303.34" xlink:href="#lg6" y1="103.873" y2="-37.751"/><linearGradient id="SVGID_22_" gradientUnits="userSpaceOnUse" x1="297.53" x2="301.019" y1="14.303" y2="58.256"><stop offset="0" stop-color="#18cffc"/><stop offset="1" stop-color="#4a98f7"/></linearGradient><linearGradient id="SVGID_23_" gradientUnits="userSpaceOnUse" x1="307.615" x2="249.012" y1="42.032" y2="-31.92"><stop offset="0" stop-color="#18cffc" stop-opacity="0"/><stop offset="1" stop-color="#65e1dc"/></linearGradient><linearGradient id="SVGID_24_" gradientUnits="userSpaceOnUse" x1="307.883" x2="326.022" y1="22.68" y2="-54.062"><stop offset="0" stop-color="#0469bc" stop-opacity="0"/><stop offset="1" stop-color="#0469bc"/></linearGradient><path d="m52.392 479.192c3.342 19.629 7.188 30.808 11.279 30.808 4.092 0 7.937-11.179 11.279-30.808z" fill="url(#SVGID_1_)"/><ellipse cx="63.671" cy="247.237" fill="url(#SVGID_2_)" rx="48.515" ry="247.237"/><ellipse cx="63.671" cy="247.237" fill="url(#SVGID_3_)" rx="30.406" ry="247.237"/><path d="m63.671 368.625c-14.467 0-28.527.855-41.996 2.458 8.395 73.771 24.058 123.39 41.996 123.39s33.601-49.62 41.996-123.39c-13.469-1.603-27.529-2.458-41.996-2.458z" fill="url(#SVGID_4_)"/><path d="m90.098 369.589c-8.623-.633-17.446-.964-26.426-.964-8.981 0-17.804.331-26.426.964 5.235 74.594 15.108 124.884 26.426 124.884 11.317.001 21.191-50.289 26.426-124.884z" fill="url(#SVGID_5_)"/><path d="m112.186 247.237c0-55.424-3.579-106.588-9.623-147.82l-24.618-24.617c-1.971-2.466-4.978-4.021-8.319-4.021-3.97 0-7.94 0-11.911 0-5.198 0-9.603 3.752-10.522 8.868-9.54 53.134 12.232 105.548 4.585 158.63-.634 4.404 1.164 8.527 4.304 11.107l54.807 54.807c.847-18.286 1.297-37.351 1.297-56.954z" fill="url(#SVGID_6_)"/><path d="m63.671 65.59c-11.135 0-22.025.513-32.593 1.479-1.604.146-2.913 1.335-3.23 2.913-.899 4.478-1.993 10.639-2.699 14.84-.396 2.356 1.548 4.452 3.926 4.221 11.193-1.088 22.755-1.668 34.595-1.668s23.403.58 34.595 1.668c2.378.231 4.322-1.865 3.926-4.221-.706-4.201-1.799-10.362-2.699-14.84-.317-1.579-1.626-2.767-3.23-2.913-10.566-.966-21.456-1.479-32.591-1.479z" fill="url(#SVGID_7_)"/><path d="m102.193 84.822c-.706-4.201-1.799-10.362-2.699-14.84-.317-1.579-1.626-2.767-3.23-2.913-8.987-.821-18.217-1.292-27.622-1.422-9.405.13-18.635.601-27.622 1.422-1.604.146-2.913 1.335-3.23 2.913-.899 4.478-1.993 10.639-2.699 14.84-.244 1.454.403 2.806 1.493 3.576 8.833-.668 17.874-1.023 27.087-1.023 1.663 0 3.319.014 4.971.037 1.652-.023 3.308-.037 4.971-.037 9.213 0 18.254.355 27.087 1.023 1.089-.77 1.737-2.123 1.493-3.576z" fill="url(#SVGID_8_)"/><path d="m63.671 87.375c9.51 0 18.836.38 27.94 1.091l-13.666-13.666c-1.971-2.466-4.978-4.021-8.319-4.021-3.97 0-7.94 0-11.911 0-5.198 0-9.603 3.752-10.522 8.868-.489 2.723-.876 5.443-1.209 8.162 5.818-.286 11.717-.434 17.687-.434z" fill="url(#SVGID_9_)"/><path d="m63.671 252.107c-7.361 0-12.941-6.544-11.892-13.83 7.647-53.083-14.125-105.496-4.585-158.63.919-5.116 5.324-8.868 10.522-8.868h11.911c5.198 0 9.603 3.752 10.522 8.868 9.542 53.134-12.232 105.548-4.585 158.631 1.048 7.285-4.532 13.829-11.893 13.829z" fill="url(#SVGID_10_)"/><path d="m56.133 79.647c-9.54 53.134 12.232 105.548 4.585 158.63-.822 5.71 2.435 10.948 7.422 12.954 4.987-2.006 8.245-7.245 7.422-12.954-7.645-53.083 14.128-105.497 4.586-158.63-.919-5.116-5.324-8.868-10.522-8.868-.991 0-1.981 0-2.971 0-5.198 0-9.603 3.752-10.522 8.868z" fill="url(#SVGID_11_)"/><path d="m471.76 510h-310.532c-12.749 0-23.084-10.335-23.084-23.084v-463.832c0-12.749 10.335-23.084 23.084-23.084h310.532c12.749 0 23.084 10.335 23.084 23.084v463.832c0 12.749-10.336 23.084-23.084 23.084z" fill="url(#SVGID_12_)"/><path d="m481.193 2.017c2.404 3.642 3.807 8.004 3.807 12.694v463.832c0 12.749-10.335 23.084-23.084 23.084h-310.532c-3.362 0-6.553-.725-9.434-2.017 4.129 6.258 11.219 10.389 19.277 10.389h310.533c12.749 0 23.084-10.335 23.084-23.084v-463.831c0-9.387-5.607-17.46-13.651-21.067z" fill="url(#SVGID_13_)"/><path d="m494.844 486.916v-418.456l-29.868-29.868v415.152c0 11.983-9.714 21.698-21.698 21.698h-305.134v11.474c0 12.749 10.335 23.084 23.084 23.084h310.532c12.748 0 23.084-10.335 23.084-23.084z" fill="url(#SVGID_14_)"/><path d="m376.331 18.184c-3.931-5.149-10.114-8.485-17.091-8.485h-120.586c-11.881 0-21.512 9.631-21.512 21.512v1.891c0 6.978 3.337 13.161 8.485 17.091l203.198 203.197c3.93 5.149 10.113 8.485 17.091 8.485h48.928v-125.178z" fill="url(#SVGID_15_)"/><path d="m430.579 492.489h-306.503v-432.637c0-16.71 13.546-30.257 30.257-30.257h289.037c16.816 0 30.448 13.632 30.448 30.448v389.207c0 23.88-19.359 43.239-43.239 43.239z" fill="url(#SVGID_16_)"/><path d="m173.927 49.189c-16.71 0-30.257 13.546-30.257 30.257v413.044h286.909c23.88 0 43.239-19.359 43.239-43.239v-389.208c0-3.273-.522-6.422-1.478-9.377-2.954-.956-6.104-1.478-9.377-1.478h-289.036z" fill="url(#SVGID_17_)"/><path d="m464.975 475.442-78.624-78.624c-1.65-2.452-4.451-4.066-7.629-4.066h-254.646v99.738h306.503c14.032-.001 26.497-6.69 34.396-17.048z" fill="url(#SVGID_18_)"/><path d="m431.143 492.491h-322.688c-23.892 0-43.245-19.366-43.245-43.245v-47.305c0-5.075 4.114-9.189 9.189-9.189h304.324c5.075 0 9.189 4.114 9.189 9.189v47.305c-.001 23.878 19.352 43.245 43.231 43.245z" fill="url(#SVGID_19_)"/><path d="m435.169 492.307v.184h-4.026c1.356 0 2.697-.066 4.026-.184z" fill="url(#SVGID_20_)"/><g fill="#bec3d2"><path d="m309.533 369.052h-129.907c-2.224 0-4.027-1.803-4.027-4.027v-11.914c0-2.224 1.803-4.027 4.027-4.027h129.907c2.224 0 4.027 1.803 4.027 4.027v11.914c0 2.224-1.803 4.027-4.027 4.027z"/><path d="m374.205 369.052h-40.28c-2.224 0-4.027-1.803-4.027-4.027v-11.914c0-2.224 1.803-4.027 4.027-4.027h40.28c2.224 0 4.027 1.803 4.027 4.027v11.914c0 2.224-1.803 4.027-4.027 4.027z"/><path d="m418.268 369.052h-20.968c-2.224 0-4.027-1.803-4.027-4.027v-11.914c0-2.224 1.803-4.027 4.027-4.027h20.968c2.224 0 4.027 1.803 4.027 4.027v11.914c0 2.224-1.803 4.027-4.027 4.027z"/><path d="m373.891 247.674h-129.907c-2.224 0-4.027-1.803-4.027-4.027v-11.914c0-2.224 1.803-4.027 4.027-4.027h129.907c2.224 0 4.027 1.803 4.027 4.027v11.914c0 2.224-1.803 4.027-4.027 4.027z"/><path d="m219.907 247.674h-40.28c-2.224 0-4.027-1.803-4.027-4.027v-11.914c0-2.224 1.803-4.027 4.027-4.027h40.28c2.224 0 4.027 1.803 4.027 4.027v11.914c0 2.224-1.803 4.027-4.027 4.027z"/><path d="m418.268 247.674h-20.968c-2.224 0-4.027-1.803-4.027-4.027v-11.914c0-2.224 1.803-4.027 4.027-4.027h20.968c2.224 0 4.027 1.803 4.027 4.027v11.914c0 2.224-1.803 4.027-4.027 4.027z"/><path d="m288.361 167.018h129.907c2.224 0 4.027 1.803 4.027 4.027v11.914c0 2.224-1.803 4.027-4.027 4.027h-129.907c-2.224 0-4.027-1.803-4.027-4.027v-11.914c0-2.224 1.803-4.027 4.027-4.027z"/><path d="m223.689 167.018h40.28c2.224 0 4.027 1.803 4.027 4.027v11.914c0 2.224-1.803 4.027-4.027 4.027h-40.28c-2.224 0-4.027-1.803-4.027-4.027v-11.914c0-2.224 1.803-4.027 4.027-4.027z"/><path d="m179.626 167.018h20.968c2.224 0 4.027 1.803 4.027 4.027v11.914c0 2.224-1.803 4.027-4.027 4.027h-20.968c-2.224 0-4.027-1.803-4.027-4.027v-11.914c0-2.224 1.803-4.027 4.027-4.027z"/><path d="m224.003 288.395h129.907c2.224 0 4.027 1.803 4.027 4.027v11.914c0 2.224-1.803 4.027-4.027 4.027h-129.907c-2.224 0-4.027-1.803-4.027-4.027v-11.914c0-2.224 1.803-4.027 4.027-4.027z"/><path d="m377.988 288.395h40.28c2.224 0 4.027 1.803 4.027 4.027v11.914c0 2.224-1.803 4.027-4.027 4.027h-40.28c-2.224 0-4.027-1.803-4.027-4.027v-11.914c0-2.224 1.803-4.027 4.027-4.027z"/><path d="m179.626 288.395h20.968c2.224 0 4.027 1.803 4.027 4.027v11.914c0 2.224-1.803 4.027-4.027 4.027h-20.968c-2.224 0-4.027-1.803-4.027-4.027v-11.914c0-2.224 1.803-4.027 4.027-4.027z"/></g><path d="m473.818 261.876v-146.205l-86.076-86.076h-170.518c-.04.535-.082 1.071-.082 1.616v1.891c0 6.978 3.337 13.161 8.485 17.091l203.198 203.197c3.93 5.149 10.113 8.485 17.091 8.485h27.902z" fill="url(#SVGID_21_)"/><path d="m348.108 81.47h-98.323c-13.334 0-24.183-10.849-24.183-24.184v-31.691h146.689v31.691c.001 13.336-10.848 24.184-24.183 24.184zm-114.505-47.875v23.691c0 8.924 7.26 16.184 16.183 16.184h98.323c8.924 0 16.184-7.26 16.184-16.184v-23.691z" fill="#555a66"/><path d="m359.24 54.614h-120.586c-11.881 0-21.512-9.631-21.512-21.512v-1.891c0-11.881 9.631-21.512 21.512-21.512h120.586c11.881 0 21.512 9.631 21.512 21.512v1.891c0 11.881-9.631 21.512-21.512 21.512z" fill="url(#SVGID_22_)"/><path d="m246.771 17.815c-11.881 0-21.512 9.631-21.512 21.512v1.891c0 3.855 1.027 7.464 2.803 10.593 3.129 1.776 6.739 2.802 10.593 2.802h120.585c11.881 0 21.512-9.631 21.512-21.512v-1.891c0-3.855-1.027-7.464-2.803-10.594-3.129-1.776-6.738-2.803-10.593-2.803h-120.585z" fill="url(#SVGID_23_)"/><path d="m359.24 9.699h-2.167c.672 2.593 1.031 5.313 1.031 8.116 0 17.819-14.445 32.264-32.264 32.264h-100.364c3.643 2.832 8.207 4.535 13.179 4.535h120.585c11.881 0 21.512-9.631 21.512-21.512v-1.891c0-11.881-9.631-21.512-21.512-21.512z" fill="url(#SVGID_24_)"/></svg>